<svg xmlns="http://www.w3.org/2000/svg" width="697.217" height="190.946" viewBox="0 0 697.217 190.946">
  <g id="Logo_client" data-name="Logo client" transform="translate(-842.955 362.67)">
    <g id="logo-3" transform="translate(842.955 -338.26)">
      <path id="Path_44" data-name="Path 44" d="M70.253,69.092a5.382,5.382,0,0,1-3.391-.975,3.168,3.168,0,0,1-1.279-2.66V46.631a.528.528,0,0,1,.589-.589h3.412c.386,0,.569.2.569.589V63.995c0,.772.345,1.158,1.056,1.158a2.924,2.924,0,0,0,.894-.1c.406,0,.63.122.65.487l.3,2.539a.528.528,0,0,1-.487.63,7.656,7.656,0,0,1-2.315.386Z" transform="translate(6.574 -30.09)" fill="#8a8a8a"/>
      <path id="Path_45" data-name="Path 45" d="M84.709,63.23a9.565,9.565,0,0,1-12.185,0,8.123,8.123,0,0,1,0-11.434,9.606,9.606,0,0,1,12.185,0,8.245,8.245,0,0,1,0,11.413Zm-8.976-2.681a4.326,4.326,0,0,0,5.808,0,4.549,4.549,0,0,0,0-5.971,4.326,4.326,0,0,0-5.808,0,4.549,4.549,0,0,0,0,5.971Z" transform="translate(11.309 -26.401)" fill="#8a8a8a"/>
      <path id="Path_46" data-name="Path 46" d="M95.992,50.11c.386,0,.569.2.569.589V65.26a6.62,6.62,0,0,1-2.254,5.219A8.53,8.53,0,0,1,88.4,72.51a9.5,9.5,0,0,1-5.5-1.523,6.093,6.093,0,0,1-2.66-4.062c0-.406,0-.589.548-.589h3.412a.751.751,0,0,1,.67.467A2.66,2.66,0,0,0,86.1,68.245a4.752,4.752,0,0,0,2.275.528A3.6,3.6,0,0,0,91,67.839,3.453,3.453,0,0,0,91.95,65.3V64.021a6.8,6.8,0,0,1-4.224,1.32,7.88,7.88,0,0,1-5.768-2.214,8.123,8.123,0,0,1,0-11.291,7.941,7.941,0,0,1,5.768-2.193,6.823,6.823,0,0,1,4.326,1.4v-.325a.528.528,0,0,1,.569-.589Zm-7.88,11.616a3.574,3.574,0,0,0,2.782-1.2,4.976,4.976,0,0,0,0-6.093,3.554,3.554,0,0,0-2.762-1.178,3.656,3.656,0,0,0-2.823,1.2,4.305,4.305,0,0,0-1.1,3.046,4.387,4.387,0,0,0,1.076,3.026A3.676,3.676,0,0,0,88.112,61.726Z" transform="translate(21.106 -26.38)" fill="#8a8a8a"/>
      <path id="Path_47" data-name="Path 47" d="M103.97,63.227a9.606,9.606,0,0,1-12.185,0,8.266,8.266,0,0,1,0-11.434,9.626,9.626,0,0,1,12.185,0,8.245,8.245,0,0,1,0,11.413Zm-9-2.681a4.36,4.36,0,0,0,5.828,0,4.61,4.61,0,0,0,0-5.971,4.36,4.36,0,0,0-5.829,0,4.61,4.61,0,0,0,0,5.971Z" transform="translate(31.222 -26.398)" fill="#8a8a8a"/>
      <path id="Path_48" data-name="Path 48" d="M103.72,50.344a2.945,2.945,0,0,1-3.879,0,2.457,2.457,0,0,1,0-3.574,3.006,3.006,0,0,1,3.879,0,2.457,2.457,0,0,1,0,3.574Zm.426,18.724a5.463,5.463,0,0,1-3.392-.975,3.209,3.209,0,0,1-1.259-2.66V54.386a.528.528,0,0,1,.589-.589H103.5c.386,0,.569.2.569.589v9.586q0,1.158,1.036,1.158a3.148,3.148,0,0,0,.914-.1c.406,0,.63.122.65.487l.3,2.539a.528.528,0,0,1-.487.63A7.7,7.7,0,0,1,104.147,69.069Z" transform="translate(41.099 -30.067)" fill="#8a8a8a"/>
      <path id="Path_49" data-name="Path 49" d="M114.9,49.637a7.961,7.961,0,0,1,5.808,2.193,8.326,8.326,0,0,1,0,11.352A7.9,7.9,0,0,1,114.9,65.4a6.986,6.986,0,0,1-4.244-1.32v7.331c0,.386-.2.569-.589.569h-3.412a.487.487,0,0,1-.569-.569V54.755a1.056,1.056,0,0,0-1.2-1.2h-.67q-.67,0-.67-.487v-2.4a.65.65,0,0,1,.467-.67,6.093,6.093,0,0,1,2.193-.366,3.757,3.757,0,0,1,3.676,2.031A6.844,6.844,0,0,1,114.9,49.637Zm-3.168,10.906a3.879,3.879,0,0,0,5.605,0,4.387,4.387,0,0,0,1.117-3.107,4.325,4.325,0,0,0-1.117-3.107,3.879,3.879,0,0,0-5.605,0,4.488,4.488,0,0,0-1.076,3.107,4.549,4.549,0,0,0,1.076,3.107Z" transform="translate(45.716 -26.395)" fill="#8a8a8a"/>
      <path id="Path_50" data-name="Path 50" d="M121.665,65.436a9.789,9.789,0,0,1-5.219-1.259,4.955,4.955,0,0,1-2.356-3.595c0-.406.142-.609.589-.609h2.985a.772.772,0,0,1,.67.447c.426,1.1,1.543,1.645,3.331,1.645a3.8,3.8,0,0,0,1.807-.366,1.178,1.178,0,0,0,.69-1c0-.528-.325-.894-.975-1.137a10.987,10.987,0,0,0-2.376-.508,22.581,22.581,0,0,1-2.843-.508,4.671,4.671,0,0,1-2.376-1.361,4.346,4.346,0,0,1,.873-6.3,8.367,8.367,0,0,1,4.915-1.3,8.976,8.976,0,0,1,4.793,1.2,4.529,4.529,0,0,1,2.234,3.188q0,.609-.548.609h-3.006a.63.63,0,0,1-.609-.366,2.031,2.031,0,0,0-1.056-1.076,3.574,3.574,0,0,0-1.746-.406,3.533,3.533,0,0,0-1.726.345,1.015,1.015,0,0,0-.65.934,1.3,1.3,0,0,0,.975,1.2,11.008,11.008,0,0,0,2.417.609,26.563,26.563,0,0,1,2.823.528,4.671,4.671,0,0,1,2.376,1.361,3.838,3.838,0,0,1,1,2.782,4.062,4.062,0,0,1-1.889,3.534A8.875,8.875,0,0,1,121.665,65.436Z" transform="translate(56.581 -26.434)" fill="#8a8a8a"/>
      <path id="Path_51" data-name="Path 51" d="M141.256,64.126a.548.548,0,0,1-.467.63,7.839,7.839,0,0,1-2.295.386,4.508,4.508,0,0,1-4.062-1.767,7.352,7.352,0,0,1-5.179,1.767,6.3,6.3,0,0,1-4.752-1.848,6.661,6.661,0,0,1-1.807-4.894V50.459c0-.386.183-.589.569-.589h3.412c.386,0,.569.2.569.589V57.79a3.594,3.594,0,0,0,.873,2.5,3.046,3.046,0,0,0,2.335.954,3.371,3.371,0,0,0,2.437-.894,3.249,3.249,0,0,0,.914-2.417V50.459c0-.386.183-.589.569-.589h3.452c.386,0,.569.2.569.589v9.565c0,.792.345,1.178,1.015,1.178a3.208,3.208,0,0,0,.934-.1.528.528,0,0,1,.67.487Z" transform="translate(65.443 -26.14)" fill="#8a8a8a"/>
      <path id="Path_52" data-name="Path 52" d="M163.441,64.381a.508.508,0,0,1-.467.63,7.879,7.879,0,0,1-2.335.386,5.422,5.422,0,0,1-3.392-.975,3.168,3.168,0,0,1-1.361-2.66V56.989a3.6,3.6,0,0,0-.853-2.5,2.884,2.884,0,0,0-2.275-.954,2.539,2.539,0,0,0-2.031.894,3.615,3.615,0,0,0-.772,2.4V64.32c0,.386-.183.589-.569.589h-3.432a.528.528,0,0,1-.589-.589V56.989a3.757,3.757,0,0,0-.792-2.5,2.64,2.64,0,0,0-2.031-.955,2.945,2.945,0,0,0-2.234.894,3.351,3.351,0,0,0-.833,2.4V64.32a.528.528,0,0,1-.589.589h-3.31c-.386,0-.569-.2-.569-.589V54.755a1.056,1.056,0,0,0-1.2-1.2h-.67q-.67,0-.67-.487v-2.4a.65.65,0,0,1,.467-.67,6.092,6.092,0,0,1,2.193-.366,3.818,3.818,0,0,1,3.615,1.868,6.864,6.864,0,0,1,5.158-1.868,5.828,5.828,0,0,1,4.813,2.153,6.7,6.7,0,0,1,5.321-2.153,6.417,6.417,0,0,1,4.813,1.848,6.621,6.621,0,0,1,1.807,4.894V60.3c0,.772.345,1.158,1,1.158a3.046,3.046,0,0,0,.934-.1q.629,0,.67.487Z" transform="translate(75.527 -26.395)" fill="#8a8a8a"/>
      <path id="Path_53" data-name="Path 53" d="M30.883,59.275a27.8,27.8,0,0,1,53.959,0H82.4A19.679,19.679,0,0,0,70.89,62.788a5.812,5.812,0,0,1-.609.386H70a5.813,5.813,0,0,1-.609-.386,20.654,20.654,0,0,0-23.05,0,5.81,5.81,0,0,1-.609.386h-.284a5.813,5.813,0,0,1-.609-.386A19.679,19.679,0,0,0,33.32,59.275ZM78.018,72.008A6.844,6.844,0,0,1,82.4,70.566h3.27V64.047H82.4a12.957,12.957,0,0,0-7.778,2.478,7.392,7.392,0,0,1-8.773,0,13.81,13.81,0,0,0-15.78,0,7.392,7.392,0,0,1-8.773,0,12.957,12.957,0,0,0-7.88-2.478H30.05v6.519h3.27a6.844,6.844,0,0,1,4.387,1.442,13.769,13.769,0,0,0,15.759,0,6.885,6.885,0,0,1,4.387-1.442,6.8,6.8,0,0,1,4.387,1.442,13.81,13.81,0,0,0,15.78,0Zm0,11.657A6.844,6.844,0,0,1,82.4,82.223h3.27V75.7H82.4a12.957,12.957,0,0,0-7.778,2.478,7.392,7.392,0,0,1-8.773,0,13.81,13.81,0,0,0-15.78,0,7.392,7.392,0,0,1-8.773,0,12.957,12.957,0,0,0-7.88-2.478H30.05v6.519h3.27a6.844,6.844,0,0,1,4.387,1.442,13.769,13.769,0,0,0,15.759,0,6.884,6.884,0,0,1,4.387-1.442,6.8,6.8,0,0,1,4.387,1.442,13.81,13.81,0,0,0,15.78,0Z" transform="translate(-30.05 -38.185)" fill="#8a8a8a"/>
    </g>
    <g id="logo-4" transform="translate(1298.955 -362.67)">
      <path id="Path_54" data-name="Path 54" d="M38.79,54.79h6.093V84.664H38.79Z" transform="translate(-38.79 3.312)" fill="#8a8a8a"/>
      <path id="Path_55" data-name="Path 55" d="M43.53,69.975A10.845,10.845,0,1,1,54.375,80.8,10.723,10.723,0,0,1,43.53,69.975Zm15.556,0a4.712,4.712,0,1,0-4.712,4.833,4.59,4.59,0,0,0,4.712-4.833Z" transform="translate(-33.904 7.766)" fill="#8a8a8a"/>
      <path id="Path_56" data-name="Path 56" d="M77.619,59.713V79.168c0,6.885-5.382,9.789-10.824,9.789A10.459,10.459,0,0,1,57.108,84l5.24-3.026a4.671,4.671,0,0,0,4.569,2.579,4.062,4.062,0,0,0,4.712-4.387V77.279a7.23,7.23,0,0,1-5.971,2.66,10.4,10.4,0,0,1,0-20.8,7.291,7.291,0,0,1,5.971,2.66V59.773Zm-5.991,9.829a4.955,4.955,0,1,0-4.955,4.752,4.63,4.63,0,0,0,4.955-4.752Z" transform="translate(-21.812 7.793)" fill="#8a8a8a"/>
      <path id="Path_57" data-name="Path 57" d="M68,69.975A10.845,10.845,0,1,1,78.845,80.8,10.723,10.723,0,0,1,68,69.975Zm15.556,0a4.712,4.712,0,1,0-4.712,4.833,4.59,4.59,0,0,0,4.671-4.833Z" transform="translate(-8.68 7.766)" fill="#8a8a8a"/>
      <path id="Path_58" data-name="Path 58" d="M80.07,58.6a3.7,3.7,0,1,1,3.7,3.7,3.7,3.7,0,0,1-3.7-3.7Zm.63,5.483h6.093V84.55H80.7Z" transform="translate(3.763 3.426)" fill="#8a8a8a"/>
      <path id="Path_59" data-name="Path 59" d="M107.6,69.949a10.276,10.276,0,0,1-9.768,10.824,7.778,7.778,0,0,1-6.093-2.5V88.429H85.65V59.713h6.093v1.929a7.778,7.778,0,0,1,6.093-2.5,10.276,10.276,0,0,1,9.768,10.8Zm-6.092,0a4.874,4.874,0,1,0-5,5,4.671,4.671,0,0,0,4.955-5Z" transform="translate(9.515 7.792)" fill="#8a8a8a"/>
      <path id="Path_60" data-name="Path 60" d="M114.593,74.038c0,4.712-4.062,6.722-8.53,6.722a8.976,8.976,0,0,1-8.793-4.874l5.321-3.026a3.371,3.371,0,0,0,3.473,2.417c1.483,0,2.214-.467,2.214-1.279,0-2.254-10.154-1.056-10.154-8.123,0-4.468,3.777-6.722,8.123-6.722a9,9,0,0,1,8,4.387l-5.341,2.8a3.026,3.026,0,0,0-2.762-1.807c-1.056,0-1.706.406-1.706,1.158C104.52,68.027,114.593,66.463,114.593,74.038Z" transform="translate(21.493 7.805)" fill="#8a8a8a"/>
      <path id="Path_61" data-name="Path 61" d="M126.788,59.42V79.891H120.7V77.982a7.006,7.006,0,0,1-5.849,2.5c-4.062,0-7.656-2.945-7.656-8.489V59.42h6.093V71.1a3.371,3.371,0,0,0,3.676,3.716c2.234,0,3.8-1.3,3.8-4.2V59.42Z" transform="translate(31.719 8.085)" fill="#8a8a8a"/>
      <path id="Path_62" data-name="Path 62" d="M149.694,67.639V80.19H143.6V68.167c0-2.031-1-3.371-2.945-3.371s-3.209,1.442-3.209,3.859V80.19h-6.093V68.167c0-2.031-.975-3.371-2.945-3.371s-3.188,1.442-3.188,3.859V80.19H119.13V59.719h6.093v1.889a6.3,6.3,0,0,1,5.483-2.457,6.093,6.093,0,0,1,5.361,2.7,6.742,6.742,0,0,1,5.93-2.7C146.628,59.15,149.694,62.521,149.694,67.639Z" transform="translate(44.027 7.786)" fill="#8a8a8a"/>
      <ellipse id="Ellipse_4" data-name="Ellipse 4" cx="4.549" cy="4.549" rx="4.549" ry="4.549" transform="translate(194.371 58.285)" fill="#8a8a8a"/>
      <ellipse id="Ellipse_5" data-name="Ellipse 5" cx="21.303" cy="21.303" rx="21.303" ry="21.303" transform="translate(47.643 0)" fill="#8a8a8a"/>
      <ellipse id="Ellipse_6" data-name="Ellipse 6" cx="21.303" cy="21.303" rx="21.303" ry="21.303" transform="translate(95.267 0)" fill="#8a8a8a"/>
      <rect id="Rectangle_21" data-name="Rectangle 21" width="42.587" height="42.587" transform="translate(0.041 0)" fill="#8a8a8a"/>
    </g>
    <g id="logo-5" transform="translate(842.955 -238.579)">
      <path id="Path_63" data-name="Path 63" d="M46.23,41.524h4.062V69.793H62.477v4.062H46.23Zm28.9,0A12.185,12.185,0,1,1,62.944,53.709,12.185,12.185,0,0,1,75.129,41.524Zm0,20.308a8.1,8.1,0,1,1,0-.041Zm-8.123,8H83.252V73.9H67.005ZM118.995,73.9h-4.062v-2.9A15.617,15.617,0,0,1,106,73.814a16.247,16.247,0,1,1,12.185-26.868l-2.985,2.66a12.185,12.185,0,1,0-9.058,20.308,11.718,11.718,0,0,0,8.9-4.062H104.068V61.792h14.967Zm14.947-32.29a7.1,7.1,0,1,1,.041-.081Zm0,20.308a6.39,6.39,0,1,1,.041-.122Zm-8.123,8h16.247v4.062H125.818Zm24.634-28.391h4.062v32.29h-4.062Zm9.687,0H164.2a2.986,2.986,0,0,1,.63,0,12.185,12.185,0,1,1,0,24.228h-.63v8.123H160.14Zm4.062,4.062V61.65h.63a8.123,8.123,0,1,0,0-16.1,2.986,2.986,0,0,0-.65.142Zm29.264-1.726-3.006,2.376A3.94,3.94,0,0,0,183.7,48.53v.325c0,1.787,1.239,2.985,3.656,3.148,9.3.569,13.566,4.935,13.566,10.7v.366a11.982,11.982,0,0,1-20.654,6.945l3.107-2.4a7.311,7.311,0,0,0,5.686,2.315,7.6,7.6,0,0,0,7.961-6.864v-.284c0-5.422-5.321-6.417-9.931-6.864-4.265-.406-7.331-3.067-7.331-6.9v-.162a7.819,7.819,0,0,1,7.981-7.23,7.6,7.6,0,0,1,5.707,2.335ZM216.82,69.692c5.057,0,9.058-5.463,9.058-12.185V41.26h4.062V57.507c0,8.936-5.849,16.145-13.038,16.145s-13.038-7.209-13.038-16.145V41.26h4.062V57.507c-.163,6.824,3.838,12.287,8.875,12.287Zm44.293,4.062h-4.062V53.648l-9.362,12.185-9.362-12.185V73.814h-4.062V41.524l13.4,17.648,13.4-17.648Z" transform="translate(-4.638 -25.623)" fill="#8a8a8a"/>
      <path id="Path_64" data-name="Path 64" d="M47.845,44.608a11.048,11.048,0,0,0-22.1,0V78.015l9.1,6.519v15.881h3.9V84.534l9.1-6.519Zm-3.9,18.684-5.2,5.2V63.616l5.2-5.2ZM29.73,58.417l5.2,5.2V68.49l-5.2-5.2Zm14.216-5.524L36.8,60.042l-7.149-7.311V47.857L36.8,55.006l7.149-7.149ZM36.8,37.459a7.189,7.189,0,0,1,6.9,5.3l-6.9,6.885-6.9-6.885a7.189,7.189,0,0,1,6.9-5.382ZM29.649,76.045V68.734l5.2,5.2v5.808Zm9.1,3.716V73.933l5.2-5.2v7.291Z" transform="translate(-25.75 -33.56)" fill="#8a8a8a"/>
    </g>
    <g id="logo-7" transform="translate(1298.955 -232.692)">
      <path id="Path_65" data-name="Path 65" d="M63.87,44.915h6.092V69.549H63.87Zm8.509,15.333c0-6.093,3.737-9.728,9.5-9.728s9.5,3.635,9.5,9.728S87.732,70,81.884,70,72.379,66.442,72.379,60.248Zm12.9,0c0-3.351-1.32-5.321-3.391-5.321s-3.371,2.031-3.371,5.321,1.279,5.28,3.371,5.28,3.391-1.868,3.391-5.26Zm8.408,10.5h5.849a3.148,3.148,0,0,0,3.29,1.828c2.315,0,3.534-1.259,3.534-3.087V66.076h-.122a5.768,5.768,0,0,1-5.544,3.331c-4.448,0-7.392-3.392-7.392-9.22s2.8-9.5,7.473-9.5a5.829,5.829,0,0,1,5.605,3.574h0V50.865h6.093V69.346c0,4.448-3.92,7.209-9.707,7.209-5.382,0-8.733-2.417-9.078-5.788Zm12.693-10.52c0-2.965-1.361-4.833-3.513-4.833s-3.473,1.848-3.473,4.833,1.3,4.671,3.473,4.671,3.513-1.645,3.513-4.651Zm8.387,0c0-6.093,3.737-9.728,9.5-9.728s9.525,3.635,9.525,9.728-3.656,9.748-9.525,9.748-9.5-3.534-9.5-9.728Zm12.9,0c0-3.351-1.32-5.321-3.391-5.321S121,56.958,121,60.268s1.279,5.28,3.351,5.28,3.31-1.889,3.31-5.28Zm8.448-13.789a3.107,3.107,0,1,1,3.168,3.026,2.965,2.965,0,0,1-3.168-2.985Zm0,4.468H142.2V69.549h-6.093Zm28.208,9.322c0,6.093-2.7,9.565-7.331,9.565A5.808,5.808,0,0,1,151.3,66.34h-.122V75.52h-6.093V50.865h6.093V54.2h.122a5.829,5.829,0,0,1,5.646-3.595c4.671.081,7.453,3.574,7.453,9.667Zm-6.093,0c0-2.965-1.361-4.854-3.493-4.854s-3.493,1.909-3.513,4.854,1.381,4.833,3.513,4.833,3.493-1.848,3.493-4.793Zm16.551-9.748c5.057,0,8.123,2.4,8.265,6.235H177.5c0-1.32-1.1-2.153-2.782-2.153s-2.437.65-2.437,1.6.67,1.259,2.031,1.543l3.9.792c3.716.792,5.3,2.295,5.3,5.118,0,3.859-3.513,6.336-8.692,6.336s-8.57-2.478-8.834-6.275h5.869c.183,1.381,1.279,2.193,3.067,2.193s2.6-.589,2.6-1.564-.569-1.178-2.031-1.483l-3.513-.751c-3.635-.751-5.544-2.681-5.544-5.524.041-3.656,3.31-6.032,8.347-6.032Zm29.061,19.029h-5.869V66.036h-.122a5.3,5.3,0,0,1-5.4,3.879,6.478,6.478,0,0,1-6.824-7.006V50.865h6.092V61.507c0,2.214,1.137,3.392,3.026,3.392a3.107,3.107,0,0,0,3.087-3.513V50.865h6.092Zm2.945-18.643h5.889V54.46h.122a5.4,5.4,0,0,1,5.3-3.94,4.854,4.854,0,0,1,5.179,4.062h.122a5.727,5.727,0,0,1,5.727-4.062,5.91,5.91,0,0,1,6.093,6.336V69.549h-6.093V58.481c0-2.031-.914-2.965-2.62-2.965a2.66,2.66,0,0,0-2.66,3.006V69.549h-5.788V58.4c0-1.868-.914-2.884-2.579-2.884a2.721,2.721,0,0,0-2.7,3.046V69.549h-6.092Z" transform="translate(5.989 -29.396)" fill="#8a8a8a"/>
      <path id="Path_66" data-name="Path 66" d="M82.291,53.064a26.908,26.908,0,0,0-4.062-6.539A27.477,27.477,0,1,0,40.294,85.761a26.584,26.584,0,0,0,6.5,3.716,27.193,27.193,0,0,0,10.3,2.031A27.538,27.538,0,0,0,84.566,63.99a27.193,27.193,0,0,0-2.275-10.926ZM57.068,42.037a21.753,21.753,0,0,1,9.182,2.032h0a8.914,8.914,0,0,1-2.193.63,11.637,11.637,0,0,0-9.85,9.85,6.093,6.093,0,0,1-5.5,5.382,11.637,11.637,0,0,0-9.85,9.85,5.91,5.91,0,0,1-1.6,3.534h0A21.933,21.933,0,0,1,57.089,42Zm-16.8,36.169c.244-.223.487-.426.731-.67a11.129,11.129,0,0,0,3.29-6.56,5.93,5.93,0,0,1,1.767-3.7,5.747,5.747,0,0,1,3.676-1.747,11.637,11.637,0,0,0,9.85-9.85,5.93,5.93,0,0,1,1.767-3.879A5.828,5.828,0,0,1,65.07,50.12a11.129,11.129,0,0,0,6.092-2.9,21.344,21.344,0,0,1,4.793,5.646,1.746,1.746,0,0,1-.264.284,5.829,5.829,0,0,1-3.676,1.787,11.6,11.6,0,0,0-9.85,9.85A6.093,6.093,0,0,1,56.7,70.225a11.7,11.7,0,0,0-9.91,9.85,6.377,6.377,0,0,1-1,2.782,22.116,22.116,0,0,1-5.524-4.651Zm16.8,7.839a22.014,22.014,0,0,1-6.093-.853,11.738,11.738,0,0,0,1.3-4.062,6.093,6.093,0,0,1,5.443-5.443,11.637,11.637,0,0,0,9.87-9.85A6.092,6.092,0,0,1,73.031,60.4a11.6,11.6,0,0,0,5.2-2.031A21.974,21.974,0,0,1,57.068,85.944Z" transform="translate(-29.471 -36.428)" fill="#8a8a8a"/>
    </g>
  </g>
</svg>
