<svg xmlns="http://www.w3.org/2000/svg" width="107" height="107" viewBox="0 0 107 107">
  <g id="_2" data-name="2" transform="translate(0.489 -0.343)">
    <rect id="Rectangle_4080" data-name="Rectangle 4080" width="107" height="107" transform="translate(-0.489 0.343)" fill="#d5905c"/>
    <g id="Layer_2" transform="translate(20.906 21.381)">
      <g id="Layer_1-2" transform="translate(0 0)">
        <path id="Path_149" data-name="Path 149" d="M55.6,42.576h0a2.72,2.72,0,0,0-2.712-2.712,2.677,2.677,0,0,0-1.9.814L44.21,47.458l-.407.407H39.328A5.44,5.44,0,0,0,33.9,53.289v11.12H31.191V53.289h0a5.44,5.44,0,0,0-5.425-5.425H21.291l-.407-.407L14.1,40.677h0a2.622,2.622,0,0,0-3.8,0,2.677,2.677,0,0,0-.814,1.9h0a2.677,2.677,0,0,0,.814,1.9h0L19.8,53.967,17.9,56,8.408,46.508h0a5.431,5.431,0,0,1-1.627-3.933h0V30.506a2.72,2.72,0,0,0-2.712-2.712V25.082a6.173,6.173,0,0,1,2.712.678V15.182l.678-.407,6.1-3.526L15.6,10.029l4.068-2.305,4.068-2.305.678-.407h0L31.869.671,32.547.4l.678.407L45.43,7.859l12.205,7.052.678.407V26.031a6.173,6.173,0,0,1,2.712-.678v2.712a2.677,2.677,0,0,0-1.9.814h0a2.69,2.69,0,0,0-.814,1.763v6.916h0v5.153h0a4.925,4.925,0,0,1-1.627,3.8L47.193,56l-1.9-1.9,9.493-9.493A2.76,2.76,0,0,0,55.6,42.576ZM32.547,48.814a8.538,8.538,0,0,1,6.645-3.662h3.526l6.374-6.374a5.352,5.352,0,0,1,6.509-.814V16.809L44.074,10.164,32.547,3.519,27.123,6.638l21.7,12.476,3.933-2.305,1.356,2.305L50.177,21.42v7.323l-.678.407L41.362,33.9l-2.034,1.221V27.794L33.9,30.913V44.745H31.191V30.913L10.985,19.25l1.356-2.305L32.547,28.472l5.425-3.119-21.7-12.476L9.493,16.809V37.422h0v.542A5.526,5.526,0,0,1,16,38.778h0l6.374,6.374H25.9A8.174,8.174,0,0,1,32.547,48.814ZM16.274,64.545v-2.17l-15.867-16L0,46.1V25.082H2.712v19.8L18.579,60.748l.407.407v3.255H16.274Zm24.41-40.819,3.39-1.9,1.356,2.305-3.39,2.034v4.2l5.425-3.119v-5.7L24.41,8.13l-3.39,1.9-2.034,1.221,21.7,12.476Zm5.425,40.819V61.29l.407-.407,15.867-16v-19.8h2.712V45.966l-.407.407-15.867,16v2.17Z" transform="translate(0 -0.4)" fill="#fff"/>
      </g>
    </g>
  </g>
</svg>
