<svg xmlns="http://www.w3.org/2000/svg" width="49" height="48" viewBox="0 0 49 48">
  <g id="Group_15" data-name="Group 15" transform="translate(0.406 0.146)">
    <rect id="Rectangle_17" data-name="Rectangle 17" width="49" height="48" transform="translate(-0.406 -0.146)" fill="rgba(255,255,255,0.2)"/>
    <path id="envelope-solid_1_" data-name="envelope-solid (1)" d="M23.289,69.879a.279.279,0,0,1,.45.218v9.482A2.226,2.226,0,0,1,21.514,81.8H2.226A2.226,2.226,0,0,1,0,79.579V70.1a.277.277,0,0,1,.45-.218c1.039.807,2.416,1.831,7.145,5.267.978.714,2.629,2.216,4.275,2.207,1.655.014,3.338-1.521,4.28-2.207C20.878,71.715,22.251,70.686,23.289,69.879ZM11.87,75.87c1.076.019,2.624-1.354,3.4-1.92,6.153-4.465,6.621-4.854,8.04-5.967a1.11,1.11,0,0,0,.427-.876v-.881A2.226,2.226,0,0,0,21.514,64H2.226A2.226,2.226,0,0,0,0,66.226v.881a1.116,1.116,0,0,0,.427.876c1.419,1.108,1.887,1.5,8.04,5.967C9.245,74.516,10.794,75.888,11.87,75.87Z" transform="translate(12.185 -49.516)" fill="#fff"/>
  </g>
</svg>
