<svg xmlns="http://www.w3.org/2000/svg" width="21.798" height="21.793" viewBox="0 0 21.798 21.793">
  <path id="instagram-brands_1_" data-name="instagram-brands (1)" d="M10.826,37.134a5.587,5.587,0,1,0,5.587,5.587A5.579,5.579,0,0,0,10.826,37.134Zm0,9.22a3.633,3.633,0,1,1,3.633-3.633,3.639,3.639,0,0,1-3.633,3.633Zm7.119-9.449a1.3,1.3,0,1,1-1.3-1.3A1.3,1.3,0,0,1,17.946,36.905Zm3.7,1.323a6.449,6.449,0,0,0-1.76-4.566A6.492,6.492,0,0,0,15.32,31.9c-1.8-.1-7.192-.1-8.991,0a6.483,6.483,0,0,0-4.566,1.756A6.471,6.471,0,0,0,0,38.223c-.1,1.8-.1,7.192,0,8.991a6.449,6.449,0,0,0,1.76,4.566,6.5,6.5,0,0,0,4.566,1.76c1.8.1,7.192.1,8.991,0a6.449,6.449,0,0,0,4.566-1.76,6.492,6.492,0,0,0,1.76-4.566c.1-1.8.1-7.187,0-8.987ZM19.322,49.145a3.678,3.678,0,0,1-2.072,2.072c-1.435.569-4.839.438-6.424.438s-4.994.126-6.424-.438a3.678,3.678,0,0,1-2.072-2.072c-.569-1.435-.438-4.839-.438-6.424s-.126-4.994.438-6.424A3.678,3.678,0,0,1,4.4,34.226c1.435-.569,4.839-.438,6.424-.438s4.994-.126,6.424.438A3.678,3.678,0,0,1,19.322,36.3c.569,1.435.438,4.839.438,6.424S19.891,47.716,19.322,49.145Z" transform="translate(0.075 -31.825)" fill="#fff"/>
</svg>
