<svg xmlns="http://www.w3.org/2000/svg" width="71" height="71" viewBox="0 0 71 71">
  <g id="Group_12" data-name="Group 12" transform="translate(0.406 0.472)">
    <rect id="Rectangle_4" data-name="Rectangle 4" width="71" height="71" transform="translate(-0.406 -0.472)" fill="#d5905c"/>
    <g id="Layer_2" transform="translate(20.5 19.04)">
      <g id="Layer_1-2" transform="translate(0 0)">
        <path id="Path_27" data-name="Path 27" d="M12.236,21.869V12.913L4.46,8.47l.694-1.25,7.776,4.443L20.706,7.22,21.4,8.47l-6.11,3.541H32.439V27.354l-.347.208L22.72,33.116l-.347.208-.347-.208-9.373-5.554-.347-.208-.069-5.485ZM8.279,16.176v2.916H6.821v-3.68l-1.041.694-.833-1.18L7.1,13.469l.555-.347.417.555,2.152,2.916-1.041.764Zm2.013,7.29L2.517,18.953,2.1,18.745V6.248l.347-.208L12.583.208,13,0l.347.208L23.483,6.04l.347.208v4.3H22.372V7.081L13,1.666,3.558,7.081V17.912l7.429,4.3-.694,1.25Zm8.4-2.43L21.4,23.744l5.971-6.734,1.111.972-6.526,7.29-.486.555-.555-.555-3.263-3.263,1.041-.972Zm-5-7.637V26.521l8.678,5.138,8.678-5.138V13.4Z" transform="translate(-2.1)" fill="#fff"/>
      </g>
    </g>
  </g>
</svg>
