<svg xmlns="http://www.w3.org/2000/svg" width="24.898" height="20.222" viewBox="0 0 24.898 20.222">
  <path id="twitter-brands_1_" data-name="twitter-brands (1)" d="M22.339,53.122c.016.221.016.442.016.664A14.419,14.419,0,0,1,7.836,68.3,14.42,14.42,0,0,1,0,66.013a10.555,10.555,0,0,0,1.232.063A10.219,10.219,0,0,0,7.567,63.9,5.112,5.112,0,0,1,2.8,60.357a6.435,6.435,0,0,0,.964.079A5.4,5.4,0,0,0,5.1,60.262a5.1,5.1,0,0,1-4.092-5.008v-.063a5.139,5.139,0,0,0,2.307.648,5.11,5.11,0,0,1-1.58-6.825,14.5,14.5,0,0,0,10.522,5.34,5.76,5.76,0,0,1-.126-1.169,5.108,5.108,0,0,1,8.831-3.491A10.046,10.046,0,0,0,24.2,48.461a5.089,5.089,0,0,1-2.243,2.812,10.229,10.229,0,0,0,2.938-.79A10.969,10.969,0,0,1,22.339,53.122Z" transform="translate(0 -48.082)" fill="#fff"/>
</svg>
